<svg data-name="Layer 1" xmlns="http://www.w3.org/2000/svg" width="709.533" height="558.594"><path fill="#e6e6e6" d="M.275.365h643.862v412.358H.275z"/><path fill="#fff" d="M18.686 52.085h607.039v336.243H18.686z"/><path fill="#00bfa6" d="M0 0h643.862v27.354H0z"/><circle cx="20.327" cy="13.985" r="5.07" fill="#fff"/><circle cx="39.571" cy="13.985" r="5.07" fill="#fff"/><circle cx="58.814" cy="13.985" r="5.07" fill="#fff"/><path fill="#e6e6e6" d="M73.844 86.973h155.981V353.44H73.844z"/><path fill="#00bfa6" d="M256.75 86.973h129.984v73.348H256.75z"/><path fill="#e6e6e6" d="M256.75 180.747h129.984v78.919H256.75zm0 99.345h129.984v73.348H256.75zM414.587 86.973h155.981v116.125H414.587zm0 150.342h155.981V353.44H414.587z"/><path d="M510.479 211.44v-25a33.5 33.5 0 1167 0v25a4.505 4.505 0 01-4.5 4.5h-58a4.505 4.505 0 01-4.5-4.5z" fill="#2f2e41"/><path fill="#ffb8b8" d="M593.514 536.786l-11.816 3.27-18.236-44.018 17.439-4.826 12.613 45.574z"/><path d="M572.324 539.016l22.787-6.306 3.971 14.347-37.135 10.277a14.887 14.887 0 0110.377-18.318z" fill="#2f2e41"/><path fill="#ffb8b8" d="M470.328 545.875h-12.26l-5.833-47.288h18.095l-.002 47.288z"/><path d="M449.31 542.372h23.645v14.886h-38.531a14.887 14.887 0 0114.887-14.886z" fill="#2f2e41"/><path d="M455.545 281.598a10.056 10.056 0 0015.392.917l32.59 14.658-2.965-18.331-30.493-11.11a10.11 10.11 0 00-14.524 13.866z" fill="#ffb8b8"/><path d="M523.259 391.836c-10.24 0-20.84-1.525-29.749-6.061a38.416 38.416 0 01-19.709-23.566c-4.642-14.7 1.211-29.14 6.872-43.105 3.507-8.654 6.82-16.827 7.68-24.884l.3-2.86c1.339-12.848 2.495-23.943 8.897-28.105 3.318-2.157 7.78-2.28 13.64-.377l55.046 17.881-2.024 104.49-.335.112c-.288.097-19.692 6.475-40.618 6.475z" fill="#2f2e41"/><path d="M510.229 230.348s27-8 48-5c0 0-12 66-8 88s-69.5 8.5-54.5-12.5l5-25s-10-10-1-22z" fill="#00bfa6"/><path d="M496.948 389.855l-33.276-6.24 11.618-89.406c.78-2.496 18.778-59.143 26.951-62.208a139.517 139.517 0 0118.166-5.047l1.184-.237-6.672 10.01-26.564 63.653z" fill="#2f2e41"/><path d="M479.61 534.919l-42.995-7.166 24.128-98.524 35.903-134.737.355 2.392c.028.179 3.382 17.78 53.15 9.97l.438-.068.12.426 60.153 212.538-48.99 8.165-44.684-155.067z" fill="#2f2e41"/><path d="M539.202 406.587l.027-.757c.03-.84 2.988-84.372 2-117.967-.992-33.71 9.922-62.901 10.032-63.192l.089-.234.241-.07c14.12-4.033 26.369 8.006 26.491 8.128l.172.172-4.021 33.176 17.216 120.641z" fill="#2f2e41"/><circle cx="537.095" cy="190.797" r="24.561" fill="#ffb8b8"/><path d="M502.553 188.44a26.53 26.53 0 0126.5-26.5h5a26.53 26.53 0 0126.5 26.5v.5h-10.566l-3.604-10.092-.721 10.092H540.2l-1.818-5.092-.364 5.092h-35.466z" fill="#2f2e41"/><path d="M534.678 218.751a4.433 4.433 0 01-.353-4.707c5.299-10.078 12.718-28.7 2.87-40.184l-.707-.825h28.587v42.92l-25.97 4.581a4.596 4.596 0 01-.796.07 4.482 4.482 0 01-3.631-1.855z" fill="#2f2e41"/><path d="M419.58 41.546a135.02 135.02 0 107.655 199.403l165.618 139.748a12.442 12.442 0 0016.066-19.003l-.018-.015L443.283 221.93A135.027 135.027 0 00419.58 41.546zm-10.677 166.928a101.158 101.158 0 11-12.076-142.548 101.158 101.158 0 0112.076 142.548z" fill="#3f3d56"/><path d="M266.355 220.55A101.163 101.163 0 01249.19 84.563q-2.901 2.921-5.61 6.12a101.158 101.158 0 10154.625 130.471q2.702-3.202 5.089-6.559a101.163 101.163 0 01-136.939 5.957z" opacity=".3" style="isolation:isolate"/><path d="M544.98 324.536a10.056 10.056 0 0012.424-9.133l34.433-9.557-13.997-12.204-30.552 10.947a10.11 10.11 0 00-2.308 19.947z" fill="#ffb8b8"/><path d="M559.292 319.477l-2.095-19.906 28.762-15.87-18.752-22.7 3.06-25.499 7.62-3.266.236.305c3.593 4.62 35.106 45.28 35.106 50.307 0 5.163-6.03 20.323-14.277 24.448-7.956 3.978-37.83 11.709-39.098 12.037z" fill="#2f2e41"/><path d="M708.533 558.594h-381a1 1 0 110-2h381a1 1 0 010 2z" fill="#ccc"/></svg>